<svg xmlns="http://www.w3.org/2000/svg" viewBox="0 0 476 100" width="476" height="100">

<path transform="translate(0,0) scale(1.0)" d="M82.888,35.357 A36,36 0 0 1 82.888,64.643" stroke="#1B2430" stroke-width="15" fill="none"/>
<path transform="translate(0,0) scale(1.0)" d="M79.125,71.160 A36,36 0 0 1 53.763,85.803" stroke="#1B2430" stroke-width="15" fill="none"/>
<path transform="translate(0,0) scale(1.0)" d="M46.237,85.803 A36,36 0 0 1 20.875,71.160" stroke="#1B2430" stroke-width="15" fill="none"/>
<path transform="translate(0,0) scale(1.0)" d="M17.112,64.643 A36,36 0 0 1 17.112,35.357" stroke="#1B2430" stroke-width="15" fill="none"/>
<path transform="translate(0,0) scale(1.0)" d="M20.875,28.840 A36,36 0 0 1 46.237,14.197" stroke="#C8671F" stroke-width="15" fill="none"/>
<path d="M136.88 73.512C146.032 73.512 152.176 67.624 152.176 58.664V42.536C152.176 33.64 146.032 27.688000000000002 136.88 27.688000000000002C127.728 27.688000000000002 121.648 33.64 121.648 42.536V58.664C121.648 67.624 127.728 73.512 136.88 73.512ZM136.88 69.608C130.48 69.608 126.19200000000001 65.32 126.19200000000001 58.856V42.471999999999994C126.19200000000001 36.008 130.48 31.656 136.88 31.656C143.344 31.656 147.632 36.008 147.632 42.471999999999994V58.856C147.632 65.32 143.344 69.608 136.88 69.608ZM185.90400000000002 48.68C184.304 43.495999999999995 180.27200000000002 40.104 174.192 40.104C170.73600000000002 40.104 167.85600000000002 41.512 166.0 44.072C165.872 44.263999999999996 165.68 44.2 165.68 44.007999999999996V41.256C165.68 40.872 165.424 40.616 165.04000000000002 40.616H161.776C161.39200000000002 40.616 161.13600000000002 40.872 161.13600000000002 41.256V84.776C161.13600000000002 85.16 161.39200000000002 85.416 161.776 85.416H165.04000000000002C165.424 85.416 165.68 85.16 165.68 84.776V69.672C165.68 69.48 165.80800000000002 69.416 166.0 69.608C167.85600000000002 72.104 170.73600000000002 73.512 174.192 73.512C180.4 73.512 184.496 70.056 186.032 64.744C186.608 62.568 186.8 60.007999999999996 186.8 56.808C186.8 53.544 186.608 50.92 185.90400000000002 48.68ZM180.78400000000002 64.872C179.69600000000003 67.624 177.13600000000002 69.544 173.68 69.544C170.288 69.544 167.92000000000002 67.56 166.96 64.744C166.12800000000001 63.016 165.744 61.096000000000004 165.744 56.808C165.744 52.584 166.12800000000001 50.664 166.83200000000002 49.0C167.92000000000002 46.120000000000005 170.22400000000002 44.072 173.74400000000003 44.072C177.328 44.072 180.08 46.056 181.104 49.064C181.80800000000002 50.792 182.192 52.647999999999996 182.192 56.808C182.192 61.224000000000004 181.74400000000003 63.144 180.78400000000002 64.872ZM220.272 51.367999999999995C219.31199999999998 44.456 215.408 40.104 207.408 40.104C201.07199999999997 40.104 196.464 43.751999999999995 195.05599999999998 49.256C194.54399999999998 51.239999999999995 194.416 53.544 194.416 56.68C194.416 60.263999999999996 194.736 63.144 195.63199999999998 65.512C197.42399999999998 70.44 201.51999999999998 73.448 207.664 73.576C213.296 73.576 217.712 71.016 219.82399999999998 66.984C220.016 66.6 219.88799999999998 66.28 219.56799999999998 66.088L217.072 64.616C216.688 64.36 216.432 64.488 216.176 64.872C214.64 67.816 211.88799999999998 69.608 208.048 69.544C203.31199999999998 69.544 200.176 67.048 199.344 63.336C199.024 62.376 198.95999999999998 60.775999999999996 198.95999999999998 58.792C198.95999999999998 58.6 199.088 58.536 199.21599999999998 58.536H219.88799999999998C220.272 58.536 220.528 58.28 220.528 57.896C220.59199999999998 54.696 220.528 53.096000000000004 220.272 51.367999999999995ZM207.408 44.072C211.82399999999998 44.072 214.76799999999997 46.632 215.6 50.344C215.856 51.176 215.98399999999998 52.712 216.048 54.44C216.048 54.632 215.92 54.696 215.79199999999997 54.696H199.21599999999998C199.088 54.696 198.95999999999998 54.632 198.95999999999998 54.44C199.024 52.712 199.152 51.176 199.47199999999998 50.088C200.30399999999997 46.568 203.11999999999998 44.072 207.408 44.072ZM241.84000000000003 40.168C238.06400000000002 40.168 235.056 41.448 233.13600000000002 44.2C233.008 44.328 232.88000000000002 44.2 232.88000000000002 44.007999999999996V41.256C232.88000000000002 40.872 232.62400000000002 40.616 232.24 40.616H228.97600000000003C228.592 40.616 228.336 40.872 228.336 41.256V72.36C228.336 72.744 228.592 73.0 228.97600000000003 73.0H232.24C232.62400000000002 73.0 232.88000000000002 72.744 232.88000000000002 72.36V52.007999999999996C232.88000000000002 47.336 236.08 44.135999999999996 240.752 44.135999999999996C245.36 44.135999999999996 248.43200000000002 47.4 248.43200000000002 52.135999999999996V72.36C248.43200000000002 72.744 248.68800000000002 73.0 249.072 73.0H252.336C252.72000000000003 73.0 252.97600000000003 72.744 252.97600000000003 72.36V51.239999999999995C252.97600000000003 44.519999999999996 248.56 40.168 241.84000000000003 40.168Z" fill="#1B2430"/>
<path d="M275.56800000000004 73.512C285.552 73.512 292.14400000000006 67.56 292.14400000000006 57.704V49.256C292.14400000000006 48.808 291.82400000000007 48.488 291.37600000000003 48.488H275.76000000000005C275.312 48.488 274.992 48.808 274.992 49.256V55.144C274.992 55.592 275.312 55.912 275.76000000000005 55.912H282.92800000000005C283.12000000000006 55.912 283.24800000000005 56.04 283.24800000000005 56.232V59.112C283.24800000000005 63.336 280.30400000000003 65.768 275.95200000000006 65.768C271.34400000000005 65.768 268.016 62.632 268.016 58.024V43.176C268.016 38.568 271.02400000000006 35.432 275.56800000000004 35.432C280.30400000000003 35.432 283.12000000000006 38.568 283.12000000000006 42.408V42.599999999999994C283.12000000000006 43.048 283.44000000000005 43.367999999999995 283.88800000000003 43.367999999999995H291.37600000000003C291.82400000000007 43.367999999999995 292.14400000000006 43.048 292.14400000000006 42.599999999999994V42.152C292.14400000000006 34.024 285.552 27.688000000000002 275.56800000000004 27.688000000000002C265.58400000000006 27.688000000000002 258.992 33.96 258.992 43.432V57.768C258.992 67.176 265.58400000000006 73.512 275.56800000000004 73.512ZM326.576 53.16C325.42400000000004 45.16 320.36800000000005 39.528 311.6 39.528C304.81600000000003 39.528 299.632 43.432 297.648 49.448C297.00800000000004 51.432 296.68800000000005 53.8 296.752 56.232C296.752 59.24 297.20000000000005 61.864 298.096 64.03999999999999C300.27200000000005 69.864 305.32800000000003 73.512 312.624 73.512C318.0 73.576 322.73600000000005 71.592 325.552 68.008C325.872 67.624 325.808 67.24 325.488 66.92L320.944 62.376C320.56 61.992 320.17600000000004 62.056 319.856 62.504C318.44800000000004 64.424 316.40000000000003 65.768 313.456 65.832C309.744 65.832 307.696 64.424 306.672 62.248C306.35200000000003 61.480000000000004 306.096 60.647999999999996 305.904 59.688C305.84000000000003 59.496 306.03200000000004 59.368 306.22400000000005 59.368H326.0C326.44800000000004 59.368 326.76800000000003 59.112 326.832 58.6C326.896 56.68 326.832 54.888 326.576 53.16ZM311.6 47.336C314.48 47.336 316.464 48.808 317.232 51.367999999999995C317.36 51.879999999999995 317.42400000000004 52.456 317.552 53.16C317.61600000000004 53.352000000000004 317.488 53.480000000000004 317.29600000000005 53.480000000000004H306.22400000000005C306.03200000000004 53.480000000000004 305.904 53.352000000000004 305.904 53.16C306.03200000000004 52.391999999999996 306.16 51.751999999999995 306.35200000000003 51.111999999999995C307.184 48.68 308.848 47.336 311.6 47.336ZM340.208 73.0H347.95200000000006C348.40000000000003 73.0 348.72 72.808 348.84800000000007 72.36L353.20000000000005 55.208C353.26400000000007 54.952 353.52000000000004 54.952 353.58400000000006 55.208L358.51200000000006 72.36C358.64000000000004 72.744 358.96000000000004 73.0 359.408 73.0H367.15200000000004C367.6 73.0 367.85600000000005 72.744 367.98400000000004 72.36L377.32800000000003 41.0C377.456 40.488 377.20000000000005 40.168 376.68800000000005 40.168L369.00800000000004 40.04C368.56000000000006 40.04 368.24000000000007 40.232 368.112 40.68L363.12000000000006 60.072C363.05600000000004 60.328 362.80000000000007 60.328 362.73600000000005 60.072L357.68000000000006 40.68C357.552 40.232 357.232 40.04 356.78400000000005 40.04H350.064C349.61600000000004 40.04 349.29600000000005 40.232 349.16800000000006 40.68L344.36800000000005 60.007999999999996C344.30400000000003 60.263999999999996 344.04800000000006 60.263999999999996 343.98400000000004 60.007999999999996L339.37600000000003 40.68C339.24800000000005 40.232 338.92800000000005 40.04 338.48 40.04H330.73600000000005C330.22400000000005 40.04 329.968 40.424 330.09600000000006 40.936L339.31200000000007 72.36C339.44000000000005 72.744 339.76000000000005 73.0 340.208 73.0ZM410.80000000000007 53.16C409.6480000000001 45.16 404.5920000000001 39.528 395.82400000000007 39.528C389.0400000000001 39.528 383.85600000000005 43.432 381.87200000000007 49.448C381.2320000000001 51.432 380.9120000000001 53.8 380.97600000000006 56.232C380.97600000000006 59.24 381.4240000000001 61.864 382.32000000000005 64.03999999999999C384.4960000000001 69.864 389.5520000000001 73.512 396.84800000000007 73.512C402.22400000000005 73.576 406.9600000000001 71.592 409.77600000000007 68.008C410.09600000000006 67.624 410.03200000000004 67.24 409.71200000000005 66.92L405.16800000000006 62.376C404.78400000000005 61.992 404.4000000000001 62.056 404.08000000000004 62.504C402.6720000000001 64.424 400.6240000000001 65.768 397.68000000000006 65.832C393.9680000000001 65.832 391.9200000000001 64.424 390.8960000000001 62.248C390.5760000000001 61.480000000000004 390.32000000000005 60.647999999999996 390.12800000000004 59.688C390.0640000000001 59.496 390.2560000000001 59.368 390.4480000000001 59.368H410.22400000000005C410.6720000000001 59.368 410.9920000000001 59.112 411.05600000000004 58.6C411.12000000000006 56.68 411.05600000000004 54.888 410.80000000000007 53.16ZM395.82400000000007 47.336C398.70400000000006 47.336 400.68800000000005 48.808 401.4560000000001 51.367999999999995C401.58400000000006 51.879999999999995 401.6480000000001 52.456 401.77600000000007 53.16C401.8400000000001 53.352000000000004 401.71200000000005 53.480000000000004 401.5200000000001 53.480000000000004H390.4480000000001C390.2560000000001 53.480000000000004 390.12800000000004 53.352000000000004 390.12800000000004 53.16C390.2560000000001 52.391999999999996 390.38400000000007 51.751999999999995 390.5760000000001 51.111999999999995C391.4080000000001 48.68 393.07200000000006 47.336 395.82400000000007 47.336ZM432.944 39.656C429.80800000000005 39.656 427.44000000000005 41.128 425.84000000000003 43.495999999999995C425.71200000000005 43.688 425.52000000000004 43.56 425.52000000000004 43.304V40.872C425.52000000000004 40.424 425.20000000000005 40.104 424.752 40.104H417.264C416.81600000000003 40.104 416.49600000000004 40.424 416.49600000000004 40.872V72.232C416.49600000000004 72.68 416.81600000000003 73.0 417.264 73.0H424.752C425.20000000000005 73.0 425.52000000000004 72.68 425.52000000000004 72.232V54.76C425.52000000000004 51.304 428.14400000000006 49.32 431.02400000000006 49.064C432.49600000000004 48.808 433.84000000000003 49.0 434.73600000000005 49.256C435.24800000000005 49.448 435.56800000000004 49.32 435.63200000000006 48.808L436.91200000000003 41.512C436.97600000000006 41.128 436.91200000000003 40.744 436.528 40.552C435.76000000000005 40.04 434.60800000000006 39.656 432.944 39.656ZM441.904 73.0H449.392C449.84000000000003 73.0 450.16 72.68 450.16 72.232V62.888C450.16 62.76 450.22400000000005 62.632 450.288 62.504L454.384 57.384C454.512 57.192 454.76800000000003 57.256 454.832 57.448L461.232 72.424C461.42400000000004 72.872 461.744 73.0 462.12800000000004 73.0H469.93600000000004C470.512 73.0 470.76800000000003 72.68 470.512 72.104L460.976 51.816C460.91200000000003 51.688 460.91200000000003 51.56 461.04 51.367999999999995L469.232 41.064C469.61600000000004 40.552 469.42400000000004 40.104 468.784 40.104H460.208C459.824 40.104 459.504 40.296 459.24800000000005 40.552L450.54400000000004 50.664C450.35200000000003 50.855999999999995 450.16 50.792 450.16 50.536V28.967999999999996C450.16 28.519999999999996 449.84000000000003 28.199999999999996 449.392 28.199999999999996H441.904C441.456 28.199999999999996 441.136 28.519999999999996 441.136 28.967999999999996V72.232C441.136 72.68 441.456 73.0 441.904 73.0Z" fill="#1B2430"/>
</svg>
